<svg height='300px' width='300px'  fill="#000000" xmlns="http://www.w3.org/2000/svg" xmlns:xlink="http://www.w3.org/1999/xlink" version="1.1" x="0px" y="0px" viewBox="0 0 30 30" xml:space="preserve"><g transform="translate(-330 -620)"><g xmlns="http://www.w3.org/2000/svg" xmlns:xlink="http://www.w3.org/1999/xlink"><path d="M356.855,633.282c0.058,0.4,0.102,0.806,0.119,1.218h-0.81c-0.2,0.333-0.413,0.666-0.634,1h1.443    c-0.113,2.733-1.134,5.235-2.783,7.201c-0.805-0.464-1.719-0.862-2.709-1.192c0.153-0.456,0.289-0.93,0.409-1.418    c-0.289,0.309-0.578,0.617-0.881,0.92c-0.367,0.367-0.741,0.723-1.117,1.069c0.104,0.025,0.212,0.046,0.313,0.072    c-1.093,2.703-2.781,4.528-4.707,4.801v-1.422c-0.334,0.221-0.667,0.434-1,0.634v0.788c-0.309-0.044-0.608-0.141-0.903-0.262    c-0.61,0.336-1.215,0.625-1.813,0.889c1.03,0.264,2.104,0.42,3.217,0.42c3.699,0,7.028-1.552,9.396-4.031    c0.224-0.234,0.446-0.471,0.652-0.721c1.844-2.244,2.952-5.117,2.952-8.248c0-1.117-0.146-2.2-0.412-3.235    C357.368,632.267,357.127,632.772,356.855,633.282z M348.521,646.471c1.049-0.972,1.947-2.363,2.625-4.043    c0.868,0.282,1.671,0.617,2.379,1.005C352.149,644.824,350.438,645.881,348.521,646.471z"></path><path d="M334.952,643.248c0.206,0.25,0.429,0.486,0.652,0.721c0.633,0.662,1.338,1.253,2.097,1.771    c0.436-0.072,0.892-0.176,1.375-0.327c-0.953-0.545-1.834-1.203-2.602-1.979c0.708-0.388,1.511-0.723,2.379-1.005    c0.387,0.96,0.854,1.812,1.371,2.559c0.297-0.123,0.595-0.25,0.896-0.394c-0.502-0.694-0.952-1.511-1.328-2.44    c1.436-0.376,3.025-0.601,4.707-0.639v1.083c0.334-0.233,0.667-0.478,1-0.731v-0.352c0.141,0.003,0.276,0.016,0.416,0.021    c0.376-0.298,0.749-0.607,1.12-0.929c-0.504-0.046-1.015-0.08-1.536-0.092V635.5h5.986c-0.004,0.174-0.021,0.341-0.029,0.513    c0.4-0.503,0.785-1.007,1.14-1.513h-0.111c-0.048-2.184-0.405-4.229-1.003-6.009c0.99-0.33,1.904-0.729,2.709-1.192    c0.461,0.549,0.866,1.144,1.223,1.77c0.152-0.488,0.257-0.949,0.328-1.386c-0.219-0.32-0.449-0.632-0.694-0.931    c-0.206-0.25-0.429-0.486-0.652-0.721C352.028,623.552,348.699,622,345,622s-7.028,1.552-9.396,4.031    c-0.224,0.234-0.446,0.471-0.652,0.721C333.108,628.996,332,631.869,332,635S333.108,641.004,334.952,643.248z M353.525,626.567    c-0.708,0.388-1.511,0.723-2.379,1.005c-0.678-1.68-1.576-3.071-2.625-4.043C350.438,624.119,352.149,625.176,353.525,626.567z     M345.5,623.047c1.926,0.272,3.614,2.098,4.707,4.801c-1.436,0.376-3.025,0.601-4.707,0.639V623.047z M345.5,629.485    c1.8-0.04,3.504-0.29,5.046-0.712c0.557,1.684,0.894,3.635,0.94,5.727H345.5V629.485z M344.5,640.515    c-1.8,0.04-3.504,0.29-5.046,0.712c-0.557-1.684-0.894-3.635-0.94-5.727h5.986V640.515z M344.5,634.5h-5.986    c0.047-2.092,0.384-4.043,0.94-5.727c1.542,0.422,3.246,0.672,5.046,0.712V634.5z M344.5,623.047v5.439    c-1.682-0.038-3.271-0.263-4.707-0.639C340.886,625.145,342.574,623.319,344.5,623.047z M341.479,623.529    c-1.049,0.972-1.947,2.363-2.625,4.043c-0.868-0.282-1.671-0.617-2.379-1.005C337.851,625.176,339.563,624.119,341.479,623.529z     M335.809,627.299c0.805,0.464,1.719,0.862,2.709,1.192c-0.598,1.78-0.955,3.825-1.003,6.009h-4.489    C333.139,631.767,334.159,629.265,335.809,627.299z M337.515,635.5c0.048,2.184,0.405,4.229,1.003,6.009    c-0.99,0.33-1.904,0.729-2.709,1.192c-1.649-1.966-2.67-4.468-2.783-7.201H337.515z"></path><path d="M340.683,646.966c3.134-1.227,6.551-3.593,9.621-6.662c3.069-3.07,5.436-6.487,6.662-9.621    c1.171-2.992,1.167-5.422,0.031-6.941l1.031-0.273l0.743-0.197l-1.325-0.557l-1.109-0.465l-2.521-1.059l1.059,2.521l0.51,1.214    l0.372,0.886l0.141,0.335l0.433-1.633c0.774,1.25,0.679,3.316-0.296,5.805c-1.177,3.009-3.463,6.305-6.438,9.279    s-6.271,5.261-9.279,6.438c-1.388,0.543-2.642,0.81-3.698,0.809c-1.102-0.001-1.989-0.293-2.579-0.883    c-0.735-0.735-1.01-1.931-0.83-3.431c-0.278-0.435-0.529-0.886-0.759-1.352c-0.584,2.393-0.297,4.312,0.882,5.489    c0.79,0.79,1.907,1.187,3.279,1.187c0.001,0,0.002,0,0.003,0C337.799,647.853,339.17,647.558,340.683,646.966z"></path></g></g></svg>